<?xml version="1.0" encoding="utf-8"?>
<!-- Generator: Adobe Illustrator 27.3.1, SVG Export Plug-In . SVG Version: 6.00 Build 0)  -->
<svg version="1.1" id="Layer_1" xmlns="http://www.w3.org/2000/svg" xmlns:xlink="http://www.w3.org/1999/xlink" x="0px" y="0px"
	 viewBox="0 0 200 200" style="enable-background:new 0 0 200 200;" xml:space="preserve">
<style type="text/css">
	.st0{fill:#3413D6;}
	.st1{fill:#FFFFFF;}
</style>
<path class="st0" d="M102.4,173.5c-5.1-0.2-9-2.5-11.6-6.6c-2.9-4.5-6.3-8.4-10.6-11.5c-5-3.7-10.5-6.6-16.6-8.2
	c-3.5-1-7-1.1-10.6-1.5c-5.8-0.7-11.5-5.7-12-12.6c-0.2-2.6,0.3-4.9,1.4-7.2c1.8-3.8,3.5-7.7,4.3-11.9c0.8-4.6,1-9.2,0.7-13.8
	c-0.3-3.9-1-7.7-2.4-11.4c-0.8-2.2-2-4.2-2.8-6.4c-1.5-3.8-1.1-7.5,0.5-11.1c1-2.2,2.4-4.2,4.4-5.6c1.9-1.3,4.1-2,6.5-2.2
	c4.2-0.3,8.5-0.5,12.4-2.1c3.3-1.4,6.6-3,9.7-4.7c4.2-2.2,7.8-5.1,10.8-8.7c1.7-2,3.1-4.2,4.6-6.3c2.3-3.1,5.2-5.2,9-5.7
	c2.1-0.3,4.2-0.1,6.3,0.5c3.6,1,6,3.3,7.7,6.3c2.8,4.8,6.6,8.8,11.1,11.9c5.7,3.9,11.8,7.1,18.7,8.2c2.5,0.4,5.1,0.5,7.7,0.8
	c5.4,0.7,10.4,5.4,11.3,10.8c0.5,2.9,0.3,5.8-1,8.6c-0.6,1.3-1.2,2.6-1.7,3.9c-2.9,6.5-3.6,13.4-3.4,20.4c0.1,4.1,0.9,8.2,2.1,12.1
	c0.8,2.6,2.1,5.1,3.2,7.6c2.4,5.3,1.1,11.8-3.2,15.6c-2.5,2.2-5.5,3.2-8.8,3.3c-9,0.4-17,3.6-24.4,8.7c-4.6,3.2-8.4,7.2-11.4,11.9
	c-1.7,2.6-3.7,4.9-6.8,5.9C106,172.9,104.2,173.2,102.4,173.5z M111.3,64.5c-0.3,1.3-0.7,2.4-0.9,3.6c-0.9,4.9-1,9.9-0.5,14.9
	c0.4,3.8,1.2,7.6,2.8,11.2c0.9,2,1.8,4.1,2.6,6.2c1.2,3.3,1.2,6.6-0.3,9.8c-3.6,7.9-12.9,10.6-20.2,5.9c-3.6-2.3-5.5-5.8-6-9.9
	c-0.4-3.3,0.6-6.3,2-9.1c2.6-5.1,3.9-10.5,4.3-16.2c0.3-5.3,0-10.4-1.3-15.6c-0.1-0.5-0.4-0.7-0.9-0.6c-1.1,0.3-2.3,0.5-3.4,1
	c-4.9,2.3-9.9,4.5-14,8.1c-1.9,1.7-3.9,3.4-5.6,5.3c-2.1,2.4-3.7,5.1-5,8.1c-1.3,3-2.1,6.1-2.6,9.2c-1,6.7-0.7,13.4,0.9,20
	c0.9,3.8,2.4,7.3,4.5,10.6c1.8,2.7,4,5.1,6.4,7.2c5.3,4.7,11.4,7.9,18,10.2c5.8,2,11.7,2.1,17.6,0.8c5.7-1.3,10.8-3.9,15.6-7.1
	c1.4-1,3-1.8,4.3-3c2.8-2.5,5.6-5.2,7.5-8.5c1.4-2.5,2.8-5.1,3.7-7.8c0.9-2.7,1.4-5.5,1.7-8.3c0.7-5.5,0.4-11-0.8-16.5
	c-1.5-7-5-12.7-10.1-17.7c-4.6-4.5-10.1-7.5-15.9-10.2C114.4,65.5,112.9,65.1,111.3,64.5z"/>
<path class="st1" d="M111.3,64.5c1.6,0.5,3.1,0.9,4.6,1.6c5.8,2.6,11.3,5.6,15.9,10.2c5.1,5,8.6,10.7,10.1,17.7
	c1.2,5.5,1.4,11,0.8,16.5c-0.3,2.8-0.8,5.6-1.7,8.3c-0.9,2.7-2.3,5.3-3.7,7.8c-1.9,3.3-4.7,6-7.5,8.5c-1.3,1.1-2.8,2-4.3,3
	c-4.8,3.2-9.9,5.8-15.6,7.1c-5.9,1.4-11.8,1.3-17.6-0.8c-6.7-2.3-12.8-5.5-18-10.2c-2.4-2.1-4.7-4.5-6.4-7.2
	c-2.1-3.3-3.6-6.8-4.5-10.6c-1.6-6.6-1.9-13.3-0.9-20c0.5-3.2,1.3-6.2,2.6-9.2c1.3-2.9,2.9-5.7,5-8.1c1.7-1.9,3.7-3.6,5.6-5.3
	c4.1-3.6,9.1-5.8,14-8.1c1.1-0.5,2.3-0.7,3.4-1c0.6-0.2,0.8,0,0.9,0.6c1.3,5.1,1.6,10.3,1.3,15.6C94.9,86.6,93.6,92,91,97.1
	c-1.4,2.9-2.4,5.9-2,9.1c0.5,4.2,2.4,7.6,6,9.9c7.3,4.7,16.6,2,20.2-5.9c1.5-3.2,1.4-6.5,0.3-9.8c-0.7-2.1-1.6-4.2-2.6-6.2
	c-1.6-3.5-2.4-7.3-2.8-11.2c-0.5-5-0.4-9.9,0.5-14.9C110.6,66.9,111,65.8,111.3,64.5z"/>
</svg>
